<?xml version="1.0" encoding="utf-8"?>
<!-- Generator: Adobe Illustrator 22.1.0, SVG Export Plug-In . SVG Version: 6.00 Build 0)  -->
<svg version="1.1" id="Layer_1" xmlns="http://www.w3.org/2000/svg" xmlns:xlink="http://www.w3.org/1999/xlink" x="0px" y="0px"
	 viewBox="0 0 320 124.7" style="enable-background:new 0 0 320 124.7;" xml:space="preserve">
<style type="text/css">
	.st0{fill:#4236A2;}
	.st1{fill:#FE3F0E;}
	.st2{fill:#E2D210;}
	.st3{opacity:0.85;}
	.st4{fill:#FFFFFF;}
</style>
<g>
	<g>
		<path class="st0" d="M100.4,17.1v90.5c0,9.4-7.7,17.1-17.1,17.1h-2c-9.4,0-17.1-7.7-17.1-17.1v-31h-28v31
			c0,9.4-7.7,17.1-17.1,17.1h-1.9C7.7,124.7,0,117,0,107.6V17.1C0,7.7,7.7,0,17.1,0H19c9.4,0,17.1,7.7,17.1,17.1v28.1h28.1V17.1
			C64.3,7.7,71.9,0,81.4,0h2C92.8,0,100.4,7.7,100.4,17.1z"/>
		<path class="st0" d="M144.8,75.9l-27.2-50.7c-6.2-11.4,2.1-25.2,15-25.2h0.8c6.7,0,12.8,3.9,15.6,10l5.8,12.8
			c2.7,5.9,5.2,11.6,8,19.9h0.5c2.7-8.2,5.2-13.9,7.8-19.9l5.6-12.7C179.5,4,185.6,0,192.4,0l0,0c12.9,0,21.1,13.7,15.1,25.1
			l-26.9,50.8v31.7c0,9.4-7.7,17.1-17.1,17.1h-1.6c-9.4,0-17.1-7.7-17.1-17.1L144.8,75.9L144.8,75.9z"/>
		<path class="st0" d="M320,44.2c0,29.6-19.1,45.8-51.8,45.8h-7.7v17.6c0,9.4-7.7,17.1-17.1,17.1h-1.9c-9.4,0-17.1-7.7-17.1-17.1
			V17.1C224.4,7.7,232,0,241.5,0h25.1C302,0,320,13.7,320,44.2z"/>
	</g>
	<g>
		<g>
			<g>
				<path class="st1" d="M276.9,40.6l15,0.4c1.6,0,2.5,1.9,1.5,3.1L267,76.3c-1.2,1.6-3.9,0.4-3.4-1.6l6.2-28.6
					C270.6,42.8,273.6,40.4,276.9,40.6z"/>
			</g>
			<g>
				<path class="st2" d="M271.6,51.9l-15-0.4c-1.6,0-2.5-1.9-1.5-3.1l26.4-32.2c1.2-1.6,3.9-0.4,3.4,1.6l-6.2,28.6
					C278.1,49.6,275.1,51.9,271.6,51.9z"/>
			</g>
		</g>
		<g class="st3">
			<path class="st4" d="M278.8,46.3l1.2-5.6l-3-0.1c-3.4-0.1-6.4,2.2-7.1,5.6l-1.2,5.6l3,0.1C275.1,51.9,278.1,49.6,278.8,46.3z"/>
		</g>
	</g>
</g>
</svg>
